<?xml version="1.0" standalone="no"?>
<!DOCTYPE svg PUBLIC "-//W3C//DTD SVG 1.1//EN" "http://www.w3.org/Graphics/SVG/1.1/DTD/svg11.dtd" >
<svg xmlns="http://www.w3.org/2000/svg">
<metadata>
<json>
<![CDATA[
{
	"fontFamily": "levo2",
	"majorVersion": 1,
	"minorVersion": 0,
	"description": "housekeeping icons\nFont generated by IcoMoon.",
	"designer": "Egor Pustynnyi",
	"version": "Version 1.0",
	"fontId": "levo2",
	"psName": "levo2",
	"subFamily": "Regular",
	"fullName": "levo2"
}
]]>
</json>
</metadata>
<defs>
<font id="levo2" horiz-adv-x="1024">
<font-face units-per-em="1024" ascent="814.08" descent="-209.92" />
<missing-glyph horiz-adv-x="1024" />
<glyph unicode="&#x20;" horiz-adv-x="512" d="" />
<glyph unicode="&#xe900;" glyph-name="room-section" data-tags="room-section" horiz-adv-x="936" d="M293.231 267.836c0-16.792-16.188-30.404-36.156-30.404s-36.156 13.612-36.156 30.404c0 16.792 16.188 30.404 36.156 30.404s36.156-13.612 36.156-30.404zM666.106 678.7h-566.866c-54.993 0-99.24-37.294-99.24-83.374v-735.953c0-46.017 44.247-83.374 99.24-83.374h566.866c54.803 0 99.24 37.357 99.24 83.437v735.889c0 46.080-44.437 83.374-99.24 83.374zM328.691 171.504c-5.675-2.597-9.546-8.226-9.546-14.759 0-0.078 0.001-0.156 0.002-0.234 0-64.905 0-129.821-0.443-194.422 0.056-0.483 0.089-1.043 0.089-1.61 0-3.355-1.127-6.447-3.022-8.918-13.691-11.849-27.787-22.973-41.882-34.162-2.273-2.205-5.377-3.564-8.798-3.564-3.73 0-7.082 1.615-9.396 4.184l-0.010 0.011c-7.901 6.321-16.182 12.642-24.083 19.532-9.987 8.028-19.532 16.435-31.605 26.548 11.631 8.407 21.997 16.055 34.070 25.284-11.631 8.407-21.997 16.435-34.892 25.853 12.010 8.723 22.819 16.435 36.535 26.169-12.010 8.028-22.44 14.981-33.248 22.313 11.631 10.114 20.733 18.52 31.984 27.939-3.029 2.204-6.557 4.502-10.2 6.625-25.514 15.309-35.88 35.22-30.507 60.693 1.264 6.321-2.465 9.418-8.28 12.642-27.433 16.435-46.080 37.926-51.895 66.686-0.578 1.472-1.28 2.744-2.121 3.907l0.035 31.554c0.822 2.086 1.643 4.551 2.465 6.321 13.274 48.861 69.531 91.465 147.026 80.656 49.809-6.953 90.517-40.834 99.682-81.667 9.292-44.753-8.597-81.035-51.959-107.583zM656.308-200.992h-175.407v852.512h175.218zM712.439-205.48v20.986c47.787 0 86.787 32.806 86.787 72.944v735.826c0 40.138-39.064 72.944-86.787 72.944h-567.056c-47.534 0.379-86.534-32.427-86.534-72.944h-24.968c0 52.022 50.252 93.93 111.692 93.93h566.866c61.882 0 111.692-42.224 111.692-93.93v-735.826c0.063-51.706-49.809-93.93-111.692-93.93zM770.023-161.801v20.986c47.787 0 86.787 32.806 86.787 72.944v735.889c0 40.138-39.064 72.944-86.787 72.944h-566.803c-47.787 0-86.787-32.806-86.787-72.944h-24.968c0 52.022 50.252 94.056 111.755 94.056h566.866c61.882 0 111.692-42.224 111.692-93.93v-736.016c0-52.022-50.252-93.93-111.755-93.93zM823.814-124.065v20.922c47.723 0 86.787 32.806 86.787 72.944v736.269c0 40.138-39.064 72.944-86.787 72.944h-566.866c-47.787 0-86.787-32.806-86.787-72.944h-24.778c0 51.706 49.683 93.93 111.565 93.93h566.866c61.882 0 111.692-42.224 111.692-93.93v-735.889c0-51.959-50.252-94.246-111.692-94.246z" />
<glyph unicode="&#xe901;" horiz-adv-x="1208" d="M0-64.711h1208.383v-58.532h-1208.383v58.532z" />
<glyph unicode="&#xe902;" horiz-adv-x="1208" d="M126.42 266.951h955.544c69.531 0 126.42-58.785 126.42-131.287v-154.864h-1208.383v154.864c0 72.502 56.889 131.287 126.42 131.287z" />
<glyph unicode="&#xe903;" horiz-adv-x="1208" d="M71.996-93.977h125.219v-130.023h-125.219v130.023z" />
<glyph unicode="&#xe904;" horiz-adv-x="1208" d="M1145.805 312.462h-234.825c-2.149 86.534-70.037 155.623-153.347 156.065h-303.407c-83.311-0.442-151.261-69.531-153.347-156.065h-235.141v347.654c-0.007 0.343-0.010 0.747-0.010 1.151 0 34.831 27.865 63.153 62.519 63.89 2.534 0.886 244.691 69.658 471.741 74.842h27.054c235.962 0 453.973-73.829 456.186-74.588 34.723-0.738 62.588-29.061 62.588-63.892 0-0.405-0.004-0.809-0.011-1.212l0.001-347.594z" />
<glyph unicode="&#xe905;" horiz-adv-x="1208" d="M1017.426-93.977h125.219v-130.023h-125.219v130.023z" />
<glyph unicode="&#xe906;" horiz-adv-x="1204" d="M1141.634 312.462h-106.066c0 86.471-67.319 156.571-150.313 156.634h-92.413c-82.995 0-150.25-70.163-150.313-156.634h-77.938c0 86.471-67.319 156.571-150.313 156.634h-92.413c-82.995 0-150.25-70.163-150.313-156.634h-106.066v347.654c-0.007 0.362-0.012 0.789-0.012 1.217 0 34.752 27.767 63.018 62.325 63.824 2.477 0.886 243.749 69.659 470.040 74.842h26.927c235.141 0 452.33-73.829 454.479-74.588 34.633-0.807 62.4-29.074 62.4-63.826 0-0.428-0.004-0.855-0.013-1.281l0.001-347.591z" />
<glyph unicode="&#xe907;" horiz-adv-x="1204" d="M0-64.711h1204.022v-58.532h-1204.022v58.532z" />
<glyph unicode="&#xe908;" horiz-adv-x="1204" d="M126.42 266.951h951.182c69.531 0 126.42-58.975 126.42-131.793v-154.359h-1204.022v154.359c0 72.755 56.889 131.793 126.42 131.793z" />
<glyph unicode="&#xe909;" horiz-adv-x="1204" d="M71.743-93.977h124.776v-130.023h-124.776v130.023z" />
<glyph unicode="&#xe90a;" horiz-adv-x="1204" d="M1013.76-93.977h124.776v-130.023h-124.776v130.023z" />
<glyph unicode="&#xe90b;" glyph-name="finish-time" data-tags="finish-time" horiz-adv-x="1258" d="M835.445 287.621c0-48.699-39.394-88.178-87.988-88.178s-87.988 39.479-87.988 88.178c0 48.699 39.394 88.178 87.988 88.178s87.988-39.479 87.988-88.178zM763.386 232.881l29.393 29.456c4.154 4.164 9.899 6.741 16.245 6.741s12.091-2.576 16.245-6.74l81.794-82.173c4.153-4.171 6.72-9.924 6.72-16.277s-2.567-12.105-6.721-16.277l-29.392-29.455c-4.154-4.164-9.899-6.741-16.245-6.741s-12.091 2.576-16.245 6.74l-81.731 81.92c-4.157 4.229-6.723 10.032-6.723 16.435 0 6.371 2.541 12.149 6.664 16.375zM726.914 586.414h41.466c12.651-0.107 22.874-10.352 22.945-23.002v-194.061c-0.071-12.656-10.294-22.902-22.935-23.008h-41.476c-12.651 0.107-22.874 10.352-22.945 23.002v193.745c-0.001 0.095-0.002 0.206-0.002 0.318 0 12.597 10.123 22.829 22.678 23.006zM1239.672 423.838l-0.442 1.707c-61.403 217.387-258.002 374.025-491.185 374.025-48.467 0-95.353-6.767-139.765-19.407-42.827-11.926-83.404-29.476-120.819-51.78-149.424-90.361-249.541-253.979-250.549-441.058-0.001-0.269-0.001-0.414-0.001-0.558 0-48.229 6.763-94.878 19.391-139.051 2.795-10.219 7.157-23.809 11.771-37.21h139.82c-4.741 9.102-9.165 18.394-13.148 27.876-19.307 43.973-30.543 95.231-30.543 149.112s11.236 105.139 31.493 151.556c19.31 45.255 46.907 86.023 80.887 120.481 34.079 34.087 74.609 61.813 119.587 81.174 45.921 20.29 96.596 31.55 149.901 31.55 0.465 0 0.929-0.001 1.394-0.003 0.027 0 0.144 0 0.261 0 53.643 0 104.656-11.257 150.807-31.537 90.126-38.515 162.241-110.918 200.384-201.179 20.428-46.241 31.78-97.296 31.78-151.002 0-0.188 0-0.376 0-0.564-0.516-157.86-95.85-293.355-232.018-352.54-45.917-20.3-96.588-31.56-149.888-31.56-0.469 0-0.938 0.001-1.407 0.003 0.003 0-0.078 0-0.16 0-46.242 0-90.53 8.366-131.432 23.668l-229.77-0.849c92.497-92.659 220.199-150.149 361.33-150.692 0.607-0.002 1.202-0.003 1.797-0.003 47.658 0 93.758 6.671 137.417 19.131 42.829 11.871 83.373 29.514 120.661 52.008 149.813 89.938 250.101 253.628 250.649 440.784 0.002 0.587 0.003 1.188 0.003 1.789 0 47.736-6.648 93.92-19.068 137.676zM0 19.548l221.235 167.759v-113.778h335.834c6.046-0.031 11.524-2.435 15.556-6.327 3.896-3.769 6.318-9.052 6.318-14.902 0-0.137-0.001-0.273-0.004-0.409v-64.327c-0.016-5.968-2.427-11.37-6.322-15.298-3.891-3.905-9.275-6.322-15.224-6.322-0.114 0-0.228 0.001-0.341 0.003h-335.817v-113.778z" />
<glyph unicode="&#xe90c;" glyph-name="start-time" data-tags="start-time" horiz-adv-x="1258" d="M520.47 187.18c-0.163-0.001-0.355-0.002-0.547-0.002-10.5 0-20.545 1.948-29.794 5.504-9.169 3.43-17.559 8.484-24.812 14.808-7.144 6.24-13.212 13.678-17.891 22.002l-118.735 0.419c-0.075-0.001-0.164-0.002-0.254-0.002-11.559 0-20.942 9.317-21.048 20.851s0 0.326 0 0.516v40.391c0.107 6.276 2.485 11.976 6.344 16.335 3.541 4.367 8.914 7.171 14.946 7.242h118.53c7.248 12.94 17.654 23.345 30.2 30.391l0.393 203.486c-0.001 0.067-0.001 0.146-0.001 0.225 0 5.94 2.417 11.316 6.321 15.197 3.657 4.158 8.988 6.767 14.927 6.767 0.108 0 0.216-0.001 0.323-0.003h41.765c4.046-0.032 7.817-1.18 11.029-3.151 3.226-2.044 5.901-4.881 7.749-8.237 1.974-3.236 3.121-7.007 3.156-11.043v-202.787c13.038-7.325 23.581-17.706 30.891-30.208 7.439-12.532 11.713-27.168 11.713-42.802 0-0.088 0-0.176 0-0.264-0.071-47.106-38.123-85.314-85.176-85.636zM640.695-73.371c-38.098-14.453-82.147-22.821-128.151-22.821-0.414 0-0.827 0.001-1.241 0.002-105.752 0.556-201.46 43.372-271.135 112.416-34.029 34.301-61.744 74.982-81.175 120.073-20.296 46.496-31.544 97.753-31.544 151.638s11.249 105.142 31.526 151.552c19.47 45.102 47.182 85.719 81.245 120.020 34.159 34.117 74.752 61.844 119.794 81.197 45.866 20.173 96.454 31.362 149.655 31.362 0.598 0 1.195-0.001 1.792-0.004 0.009 0 0.129 0 0.249 0 53.705 0 104.781-11.257 150.997-31.539 45.082-19.476 85.657-47.187 119.914-81.246 34.122-34.201 61.85-74.836 81.2-119.918 20.134-45.902 31.299-96.514 31.299-149.734 0-0.572-0.001-1.143-0.004-1.714 0-0.003 0-0.112 0-0.22 0-53.78-11.256-104.932-31.541-151.227-7.207-17.107-2.466-7.12-13.591-24.819h143.676c27.876 63.652 28.508 104.549 28.76 176.292 0.002 0.552 0.003 1.204 0.003 1.856 0 47.707-6.648 93.862-19.068 137.588l0.418-1.836c-61.671 217.445-258.432 374.062-491.773 374.062-48.551 0-95.518-6.78-140.006-19.446-42.89-11.918-83.532-29.469-121.010-51.781-149.529-90.125-249.805-253.601-250.983-440.589-0.001-0.318-0.001-0.493-0.001-0.668 0-48.199 6.763-94.818 19.391-138.961 11.756-42.954 29.299-83.655 51.696-121.119 89.605-149.905 253.135-250.372 440.183-251.044 0.605-0.002 1.206-0.003 1.808-0.003 47.718 0 93.878 6.671 137.598 19.132 42.936 11.853 83.588 29.499 120.979 52.011 37.129 22.246 71.106 48.941 101.301 79.391zM1257.877 19.548l-221.235-167.696v113.778h-336.593c-6.045 0.038-11.521 2.441-15.557 6.328-3.895 3.768-6.318 9.052-6.318 14.901 0 0.137 0.001 0.273 0.004 0.409v64.391c0.016 5.968 2.427 11.37 6.322 15.298 3.891 3.905 9.275 6.322 15.224 6.322 0.114 0 0.228-0.001 0.341-0.003h336.575v113.778z" />
<glyph unicode="&#xe90d;" glyph-name="ass-manager" data-tags="ass-manager" horiz-adv-x="1128" d="M21.744-224c-0.117-0.003-0.256-0.004-0.395-0.004-2.9 0-5.636 0.703-8.047 1.947-2.579 1.232-4.874 2.84-6.862 4.765-1.838 2.054-3.386 4.433-4.539 7.027-1.117 2.881-1.778 6.014-1.9 9.285l-0.002 109.216c0 25.284 2.781 43.299 8.786 55.814 8.148 14.582 19.789 26.344 33.825 34.409q224.008 136.574 303.147 173.868v175.028c-28.697 22.819-43.046 57.268-43.046 104.36v138.556c-0.005 0.586-0.008 1.279-0.008 1.972 0 28.358 4.629 55.634 13.173 81.115 7.91 23.683 20.2 45.745 35.866 64.946 16.163 19.024 36.773 34.384 60.207 44.416 24.74 11.096 52.395 17.325 81.505 17.325 1.453 0 2.903-0.016 4.349-0.046 0.9 0.025 2.215 0.038 3.533 0.038 29.242 0 57.068-6.057 82.294-16.986 23.097-10.049 43.681-25.385 60.037-44.454 15.557-19.050 27.848-41.113 35.858-65.132 8.442-25.248 13.070-52.64 13.070-81.113 0-0.576-0.002-1.151-0.006-1.726v-138.278q0-69.973-43.046-103.917v-175.66c12.642-5.752 27.307-12.642 44.247-21.681s34.26-18.268 52.338-28.381 35.65-20.227 52.78-30.278 34.702-20.67 52.275-31.289 32.427-19.721 44.879-27.433 24.525-14.918 36.093-22.123c7.814-4.416 14.316-8.598 20.575-13.096 16.466-10.102 28.033-21.669 33.595-34.185s8.786-31.289 8.786-55.814v-109.163c0.007-0.208 0.011-0.452 0.011-0.697 0-6.092-2.414-11.62-6.338-15.68-3.771-4.249-9.248-6.924-15.35-6.947zM1007.439 207.85l-121.173 114.663 72.502 319.463-48.166 87.166 96.838 50.062 96.838-50.062-48.672-87.166 72.502-320.221z" />
<glyph unicode="&#xe90e;" glyph-name="check-out" data-tags="check-out" horiz-adv-x="1321" d="M1286.005 510.12c-24.697 59.532-59.269 110.304-102.163 152.669-28.885 28.997-61.505 54.148-97.11 74.706-34.744 20.19-72.331 35.862-112.054 46.258-39.338 10.579-80.897 16.256-123.783 16.256-41.551 0-81.857-5.329-120.273-15.341-39.595-10.553-77.164-26.189-111.917-46.171-35.445-21.266-68.042-46.702-97.111-75.674-42.952-42.394-77.544-93.166-101.139-149.675-22.676-54.748-35.196-114.834-35.196-177.844 0-0.763 0.002-1.525 0.005-2.287 0.215-54.571 9.572-107.003 26.62-155.828l232.856 3.356c4.279-0.043 8.298-1.113 11.836-2.976 3.707-1.828 6.748-4.869 8.595-8.607 1.848-3.505 2.92-7.526 2.957-11.793v-232.498c0.001-0.092 0.002-0.2 0.002-0.308 0-6.365-2.613-12.119-6.825-16.249 20.401-9.392 45-18.361 70.389-25.436 39.067-10.139 79.755-15.465 121.686-15.465 0.25 0 0.501 0 0.751 0.001 257.448 0.894 465.953 209.333 466.955 466.709-0.581 63.694-13.416 124.135-36.25 179.393zM1122.418 447.858l-325.215-324.899c-2.404-2.026-5.399-3.425-8.691-3.908-0.414-0.050-0.785-0.071-1.16-0.071-3.172 0-5.981 1.558-7.702 3.951l-197.677 197.496c-2.403 2.162-3.908 5.282-3.908 8.753 0 3.032 1.148 5.796 3.032 7.881l82.606 82.542c2.171 2.389 5.29 3.882 8.758 3.882 3.026 0 5.786-1.137 7.877-3.007l0.874-0.875 98.355-97.28c2.171-2.389 5.29-3.882 8.758-3.882 3.026 0 5.786 1.137 7.877 3.007l0.874 0.875 225.090 224.838c2.171 2.389 5.29 3.882 8.758 3.882 3.026 0 5.786-1.137 7.877-3.007l0.874-0.875 81.794-80.719c2.403-2.176 3.909-5.304 3.919-8.784 0.187-0.724 0.294-1.554 0.294-2.408 0-2.893-1.23-5.498-3.195-7.322zM321.422 285.788c1.651 1.603 3.848 2.652 6.286 2.842q5.661 0.002 5.661-8.468v-156.508h258.655c2.764-0.201 5.321-0.879 7.66-1.953 2.197-1.337 4.095-3.235 5.448-5.496 1.266-1.848 1.999-4.046 1.999-6.415 0-0.415-0.023-0.825-0.066-1.229l0.004-151.085c-0.027-4.253-1.815-8.084-4.671-10.803-1.89-3.402-5.454-5.663-9.546-5.663-0.291 0-0.579 0.011-0.864 0.034l-257.416-0.002v-156.76q0-8.47-5.626-8.47c-2.26 0.166-4.244 1.23-5.616 2.833l-318.65 243.306c-2.849 1.878-4.704 5.064-4.704 8.683 0 0.259 0.009 0.515 0.028 0.769 0.175 3.757 1.948 7.102 4.655 9.368z" />
<glyph unicode="&#xe90f;" glyph-name="gra" data-tags="gra" horiz-adv-x="1425" d="M22.756-224c-0.118-0.003-0.257-0.004-0.397-0.004-3.050 0-5.935 0.701-8.505 1.951-2.798 1.382-5.308 3.002-7.605 4.874-1.942 1.912-3.518 4.322-4.5 7.017-1.245 2.634-1.948 5.573-1.948 8.675 0 0.219 0.003 0.437 0.010 0.654l-0.001 109.132c0 25.284 3.224 43.236 9.292 55.814s18.078 24.020 35.714 34.639q231.917 136.28 314.722 173.574v175.091c-30.151 22.629-45.005 57.205-45.005 104.36v139.062c-0.011 0.859-0.017 1.873-0.017 2.889 0 28.070 4.775 55.025 13.557 80.097 8.019 23.913 20.825 46.016 37.231 64.91 16.859 19.218 38.124 34.558 62.211 44.427 25.958 10.823 54.832 16.877 85.12 16.877 1.466 0 2.929-0.014 4.389-0.042 0.912 0.024 2.246 0.036 3.583 0.036 30.392 0 59.371-6.051 85.798-17.013 23.722-9.762 44.988-25.144 61.874-44.454 16.025-18.985 28.797-41.003 37.322-65.032 8.71-25.562 13.477-53.32 13.477-82.19 0-0.2 0-0.399-0.001-0.599v-138.398c0-46.649-14.854-81.288-45.005-103.917v-175.66c13.021-5.752 28.318-12.642 45.89-21.618s35.714-18.268 54.297-28.381 36.662-20.227 54.74-30.278 36.156-20.67 54.297-31.289 33.88-19.721 46.839-27.433 25.284-14.918 37.547-22.123 18.963-11.567 20.859-12.958c17.636-10.556 29.709-22.123 35.714-34.639s9.292-31.289 9.292-55.814v-109.163c0.007-0.215 0.012-0.468 0.012-0.722 0-6.084-2.415-11.605-6.338-15.655-3.959-4.127-9.527-6.695-15.695-6.695-0.058 0-0.116 0-0.174 0.001h-988.594zM920.715 193.944c-0.019 0-0.041 0-0.063 0-9.916 0-18.865 4.144-25.208 10.795-7.098 6.865-11.993 15.941-13.57 26.113l-35.557 239.382h-11.947c-0.022 0-0.048 0-0.074 0-6.423 0-11.631 5.207-11.631 11.631 0 0.178 0.004 0.355 0.012 0.531l-0.001 20.518c-0.003 0.094-0.004 0.205-0.004 0.316 0 6.458 5.236 11.694 11.694 11.694 0.002 0 0.003 0 0.005 0h290.070c6.316-0.138 11.384-5.291 11.384-11.628 0-0.134-0.002-0.268-0.007-0.401l0.001-20.334c0-0.026 0-0.057 0-0.087 0-3.312-1.274-6.327-3.358-8.581-1.932-2.137-4.726-3.48-7.833-3.48-0.177 0-0.353 0.004-0.527 0.013l-11.606-0.001-35.587-239.313c-1.368-10.55-6.395-19.727-13.744-26.39-6.392-6.697-15.341-10.841-25.257-10.841-0.022 0-0.044 0-0.067 0zM853.902 547.919c1.575 17.112 6.072 32.826 12.997 47.148 6.685 13.896 15.801 26.448 26.789 37.077 22.284 21.238 52.471 34.284 85.706 34.284 21.9 0 42.478-5.665 60.346-15.61 17.974-10.139 33.184-24.621 44.197-42.022 11.38-17.504 18.737-37.873 20.744-59.79l-36.434-0.516c-2.76 23.199-13.786 43.41-30.001 57.95-15.574 14.569-36.452 23.47-59.409 23.47s-43.835-8.9-59.371-23.439c-16.056-14.713-27.020-34.849-29.988-57.502l-35.575-0.479zM1135.945 193.944l24.146 100.377h241.082l24.209-100.061zM1160.154 318.72v31.162c-0.086 0.676-0.134 1.459-0.134 2.253 0 4.583 1.626 8.786 4.332 12.064 3.166 2.733 7.36 4.419 11.948 4.419 0.636 0 1.265-0.032 1.884-0.096l78.050 0.006v406.187c0 0.011 0 0.025 0 0.038 0 6.875 2.697 13.12 7.090 17.735 4.256 4.62 10.349 7.511 17.118 7.511 0.001 0 0.001 0 0.002 0 6.736-0.053 12.802-2.877 17.122-7.387 4.39-4.549 7.090-10.738 7.090-17.557 0-0.119-0.001-0.239-0.002-0.358v-406.169h66.434c0.203 0.003 0.443 0.005 0.684 0.005 7.353 0 14.296-1.753 20.434-4.865 5.173-2.152 8.92-7.421 8.92-13.566 0-0.211-0.004-0.422-0.013-0.631l0.001-31.133h-241.019z" />
<glyph unicode="&#xe910;" glyph-name="manager" data-tags="manager" horiz-adv-x="1379" d="M22.692-224c-0.122-0.003-0.266-0.004-0.41-0.004-3.045 0-5.926 0.701-8.491 1.951-2.774 1.384-5.262 3.004-7.54 4.872-1.945 1.914-3.521 4.324-4.503 7.019-1.136 2.536-1.773 5.347-1.773 8.306 0 0.349 0.009 0.695 0.026 1.040l-0.002 109.052c0 25.284 3.224 43.299 9.229 55.814s18.015 24.083 35.65 34.639q230.969 136.344 313.458 173.638v175.028c-30.025 22.629-44.879 57.205-44.879 104.36v138.556c-0.019 1.143-0.030 2.492-0.030 3.843 0 27.713 4.639 54.342 13.184 79.153 7.992 23.897 20.757 46 37.116 64.907 16.751 19.241 37.911 34.619 61.899 44.546 25.845 11.106 54.654 17.33 84.918 17.33 1.601 0 3.198-0.017 4.791-0.052 0.947 0.027 2.344 0.040 3.743 0.040 30.239 0 59.069-6.029 85.355-16.95 23.617-9.789 44.777-25.167 61.564-44.451 15.985-19.014 28.717-41.054 37.202-65.099 8.472-25.273 13.1-52.682 13.1-81.172 0-0.558-0.002-1.117-0.005-1.674v-138.344c0-46.712-14.791-81.288-44.879-103.917v-175.66c12.642-5.752 28.192-12.642 45.764-21.618s35.587-18.268 54.108-28.381 36.535-20.227 54.55-30.278 36.093-20.67 54.108-31.289 33.754-19.721 46.712-27.433 25.284-14.918 37.483-22.123 18.963-11.567 20.796-12.958c17.572-10.556 29.582-22.123 35.587-34.639s9.229-31.289 9.229-55.814v-109.163c0.007-0.208 0.011-0.452 0.011-0.697 0-6.092-2.414-11.62-6.338-15.68-3.943-4.163-9.518-6.757-15.7-6.757-0.012 0-0.023 0-0.035 0h-984.998zM1010.6 212.148l-40.834 45.132v248.162h-32.174c-3.143 0.017-6.004 1.214-8.165 3.17-2.432 1.821-4.237 4.384-5.085 7.351l-59.694 248.577c-0.331 0.645-0.525 1.407-0.525 2.215 0 0.155 0.007 0.308 0.021 0.46 0.067 2.606 1.009 4.999 2.544 6.892 1.297 1.902 3.479 3.148 5.952 3.148 0.124 0 0.247-0.003 0.369-0.009l129.942 19.659c6.44 1.013 13.866 1.592 21.428 1.592s14.988-0.579 22.238-1.695l129.087-19.493c2.484-0.389 4.652-1.523 6.323-3.162 1.516-1.87 2.458-4.263 2.526-6.873 0.004-0.088 0.005-0.174 0.005-0.26 0-0.873-0.188-1.701-0.526-2.447l-59.718-248.441c-0.569-2.024-1.435-3.793-2.563-5.36-1.284-1.614-3.015-2.897-5.005-3.653-1.703-0.945-3.628-1.52-5.68-1.606l-32.073-0.001v-247.909l-21.428-22.376v225.154l-7.143 45.132h-7.143l-7.143-45.132v-22.313h-22.945v-22.313h21.428v-22.25h-21.428v-23.324h21.428v-22.313h-21.428v-22.313h21.428v-22.313h-21.428v-23.324h21.428v-22.313h-21.428v-22.313h21.428v-21.744l-0.506-0.506h-23.451zM994.291 677.499c7.437-7.855 17.939-12.744 29.582-12.744s22.145 4.888 29.565 12.725c7.608 7.949 12.281 18.726 12.281 30.594 0 0.073 0 0.146-0.001 0.219 0.040 0.676 0.063 1.48 0.063 2.29 0 23.145-18.763 41.908-41.908 41.908s-41.908-18.763-41.908-41.908c0-0.809 0.023-1.613 0.068-2.411-0.005 0.049-0.006-0.024-0.006-0.098 0-11.868 4.673-22.645 12.279-30.591zM1349.468 237.938l-59.986 12.136-131.413 209.225-23.451-17.003c-1.844-1.327-4.148-2.122-6.637-2.122s-4.793 0.795-6.671 2.145l0.034 27.031c10.176 0.375 19.304 4.575 26.049 11.194 7.103 7.18 12.164 16.404 14.223 26.711l53.595 242.178 66.37-190.578c0.334-1.057 0.526-2.273 0.526-3.534 0-0.247-0.007-0.492-0.022-0.735 0.010-0.147 0.015-0.358 0.015-0.571 0-4.845-2.5-9.106-6.281-11.563l-29.13-20.197 132.425-208.972-10.177-61.061z" />
<glyph unicode="&#xe911;" glyph-name="checked-out" data-tags="checked-out" horiz-adv-x="1248" d="M642.084-205.945c-39.87-11.504-85.666-18.121-133.008-18.121-0.603 0-1.206 0.001-1.809 0.003-185.579 0.635-347.836 100.282-436.704 248.876-22.281 37.283-39.681 77.671-51.398 120.41-12.459 43.661-19.167 89.892-19.167 137.69 0 0.179 0 0.359 0 0.538 1.021 185.79 100.567 348.131 249.016 437.519 37.205 22.097 77.517 39.443 120.133 51.248 44.037 12.509 90.611 19.229 138.756 19.229 231.549 0 426.794-155.438 487.080-367.662l1.306-5.262c11.504-39.912 18.12-85.755 18.12-133.144 0-0.578-0.001-1.155-0.003-1.732-0.551-185.573-100.018-347.88-248.45-436.96-37.289-22.456-77.692-40.001-120.468-51.829zM359.597-66.958c43.458-19.179 94.133-30.343 147.415-30.343 0.123 0 0.246 0 0.368 0 0.375-0.002 0.842-0.002 1.308-0.002 52.948 0 103.287 11.167 148.792 31.274 135.319 58.619 230.025 193.030 230.604 349.629 0.002 0.464 0.003 0.924 0.003 1.385 0 52.996-11.167 103.385-31.275 148.94-19.207 44.831-46.708 85.132-80.576 119.078-33.97 33.756-74.233 61.24-118.865 80.53-45.956 20.14-96.631 31.304-149.913 31.304-0.123 0-0.246 0-0.368 0-0.375 0.002-0.842 0.002-1.308 0.002-52.948 0-103.287-11.167-148.792-31.274-44.716-19.236-84.911-46.732-118.765-80.571-33.761-33.995-61.246-74.279-80.536-118.93-20.137-46.11-31.298-96.946-31.298-150.39s11.161-104.28 31.278-150.307c19.308-44.734 46.793-85.018 80.578-119.036 33.847-33.866 74.146-61.322 118.889-80.359zM532.437 198.728c-0.158-0.001-0.344-0.002-0.531-0.002-10.418 0-20.384 1.932-29.561 5.458-9.094 3.403-17.414 8.416-24.609 14.687-7.085 6.189-13.103 13.566-17.744 21.821l-117.698 0.415c-0.056-0.001-0.123-0.001-0.19-0.001-11.476 0-20.796 9.233-20.937 20.676s0 0.327 0 0.515v40.060c0.107 6.224 2.465 11.878 6.292 16.201 3.475 4.324 8.754 7.119 14.689 7.245h117.63c7.189 12.834 17.509 23.154 29.952 30.141l0.39 201.817c-0.001 0.066-0.001 0.145-0.001 0.223 0 5.891 2.397 11.223 6.269 15.072 3.617 4.099 8.871 6.679 14.728 6.709h41.444c4.012-0.035 7.752-1.173 10.939-3.125 3.275-1.934 6.007-4.666 7.937-7.93 1.956-3.198 3.094-6.938 3.129-10.94v-201.374c12.962-7.273 23.442-17.592 30.7-30.022 7.378-12.43 11.617-26.945 11.617-42.451 0-0.087 0-0.175 0-0.262-0.070-46.697-37.775-84.578-84.411-84.933zM1088.133 800l159.424-210.894h-108.268v-212.273c-0.096-5.806-2.473-11.040-6.27-14.859-3.603-3.861-8.723-6.269-14.405-6.269-0.049 0-0.097 0-0.146 0.001h-61.117c-11.394 0.176-20.563 9.454-20.563 20.874 0 0.045 0 0.090 0 0.135v212.391h-108.143z" />
<glyph unicode="&#xe912;" glyph-name="late-check-out" data-tags="late-check-out" horiz-adv-x="1254" d="M582.613 286.078c0-48.552-38.316-87.912-85.58-87.912s-85.58 39.359-85.58 87.912c0 48.552 38.316 87.912 85.58 87.912s85.58-39.359 85.58-87.912zM512.536 231.503l28.611 29.367c3.999 4.103 9.58 6.647 15.755 6.647s11.756-2.545 15.75-6.643l79.598-81.93c4.038-4.205 6.524-9.926 6.524-16.227s-2.486-12.023-6.532-16.235l-28.351-29.17c-3.999-4.103-9.58-6.647-15.755-6.647s-11.756 2.545-15.75 6.643l-79.85 81.426c-4.057 4.254-6.554 10.028-6.554 16.385s2.497 12.131 6.563 16.394zM476.804 583.97h40.332c12.401-0.212 22.373-10.315 22.373-22.747 0-0.068 0-0.135-0.001-0.202v-193.459c0.001-0.057 0.001-0.125 0.001-0.192 0-12.432-9.972-22.535-22.353-22.747h-40.352c-12.401 0.212-22.373 10.315-22.373 22.747 0 0.068 0 0.135 0.001 0.202v192.955c-0.005 0.171-0.007 0.373-0.007 0.576 0 12.311 9.805 22.331 22.032 22.678zM628.932-205.787c-39.053-11.562-83.923-18.215-130.347-18.215-0.568 0-1.136 0.001-1.704 0.003-176.366 0.567-339.334 96.545-429.010 252.518-20.576 35.116-37.651 75.713-49.122 118.601-12.194 43.892-18.75 90.316-18.75 138.272 0 0.241 0 0.482 0 0.723 1.008 181.144 94.529 348.46 246.216 441.098 34.191 20.911 73.668 38.332 115.474 50.223 267.305 76.004 540.683-82.804 613.848-353.85l0.441-1.702c11.247-40.084 17.712-86.116 17.712-133.658 0-0.645-0.001-1.289-0.004-1.933-0.567-181.018-94.024-348.46-245.775-440.531-34.231-21.243-73.757-38.84-115.678-50.748zM352.215-66.137c42.527-19.271 92.213-30.502 144.522-30.502 0.149 0 0.297 0 0.446 0 0.398-0.002 0.897-0.003 1.395-0.003 51.969 0 101.315 11.233 145.742 31.404 88.373 38.972 158.675 111.014 195.329 200.413 19.32 45.865 30.024 96.312 30.024 149.258 0 0.689-0.002 1.377-0.005 2.064 0.002 0.307 0.003 0.794 0.003 1.282 0 53.178-10.94 103.801-30.691 149.742-18.54 44.861-45.32 85.369-78.446 119.717-33.086 33.769-72.541 61.375-116.403 80.856-44.93 20.224-94.616 31.455-146.925 31.455-0.149 0-0.297 0-0.446 0-0.398 0.002-0.897 0.003-1.395 0.003-51.969 0-101.315-11.233-145.742-31.404-43.994-19.449-83.38-47.067-116.371-80.943-67.532-70.193-109.078-165.651-109.078-270.813s41.546-200.62 109.119-270.856c32.996-33.912 72.53-61.512 116.553-80.75zM1146.131 133.823l-58.293 19.725c72.409 225.987 18.339 499.428-196.62 585.638-8.817 3.665-14.904 12.209-14.904 22.174 0 2.638 0.427 5.177 1.215 7.551l4.741 14.703c2.916 9.512 11.621 16.309 21.913 16.309 2.929 0 5.729-0.55 8.303-1.553 245.871-97.815 316.39-406.169 233.646-664.548zM1056.392-33.052l-42.727 259.828 240.418-92.26-197.691-167.568z" />
<glyph unicode="&#xe913;" glyph-name="qas" data-tags="qas" horiz-adv-x="1411" d="M22.756-224c-0.094-0.002-0.206-0.003-0.317-0.003-3.105 0-6.040 0.724-8.646 2.013-2.775 1.366-5.265 2.965-7.546 4.812-1.94 1.911-3.516 4.32-4.497 7.015-1.136 2.533-1.774 5.339-1.774 8.294 0 0.353 0.009 0.704 0.027 1.052l-0.002 109.115c0 25.284 3.224 43.299 9.292 55.814s18.078 24.020 35.714 34.639q231.791 136.28 314.659 173.574v175.028c-30.151 22.629-45.005 57.205-45.005 104.36v138.556c-0.012 0.915-0.020 1.996-0.020 3.078 0 28 4.752 54.89 13.494 79.908 8.040 23.916 20.867 46.019 37.294 64.908 16.87 19.274 38.158 34.658 62.277 44.556 25.942 11.099 54.848 17.318 85.206 17.318 1.414 0 2.824-0.013 4.232-0.040 0.931 0.024 2.278 0.036 3.628 0.036 30.401 0 59.389-6.051 85.825-17.014 23.745-9.755 45.032-25.139 61.937-44.455 16.030-19.001 28.803-41.041 37.322-65.093 8.71-25.556 13.476-53.307 13.476-82.17 0-0.207 0-0.414-0.001-0.62v-138.334c0-46.649-14.854-81.288-45.005-103.854v-175.723c13.021-5.752 28.318-12.642 45.954-21.618s35.714-18.268 54.297-28.381 36.662-20.227 54.74-30.278 36.219-20.67 54.297-31.289 33.88-19.721 46.839-27.433 25.284-14.918 37.61-22.123 18.963-11.567 20.859-12.958c17.636-10.556 29.709-22.123 35.714-34.639s9.292-31.289 9.292-55.814v-109.163c0.007-0.215 0.012-0.468 0.012-0.722 0-6.084-2.415-11.605-6.338-15.655-3.959-4.13-9.53-6.701-15.701-6.701-0.189 0-0.378 0.002-0.566 0.007l-988.575-0.001zM1026.844 246.914l-176.988 198.353c-2.076 2.146-3.355 5.075-3.355 8.301 0 0.126 0.002 0.252 0.006 0.377-0.011 0.173-0.017 0.396-0.017 0.621 0 3.32 1.28 6.342 3.374 8.598l13.899 18.955c3.168 2.864 7.388 4.616 12.018 4.616 0.086 0 0.172-0.001 0.258-0.002 0.174 0.011 0.392 0.017 0.612 0.017 2.249 0 4.348-0.642 6.123-1.752l151.276-78.984 338.236 315.417c4.591 5.462 11.343 8.98 18.921 9.228 0.080 0.001 0.126 0.002 0.172 0.002 10.549 0 19.126-8.445 19.338-18.944q0-0.525 0-0.968c0-0.029 0-0.064 0-0.099 0-6.511-2.879-12.35-7.433-16.313l-362.219-446.347c-1.614-2.453-4.355-4.051-7.47-4.051-0.107 0-0.214 0.002-0.321 0.006-0.238-0.035-0.532-0.054-0.83-0.054-2.332 0-4.387 1.192-5.586 3z" />
<glyph unicode="&#xe914;" glyph-name="room-status" data-tags="room-status" d="M855.925-218.374l-63.21 87.166-2.212-1.454c-39.353-25.56-84.823-46.494-133.257-60.429-47.549-14.497-98.084-22.337-150.45-22.337-48.581 0-95.587 6.748-140.13 19.357-43.49 11.238-84.837 28.697-122.779 51.279-36.7 22.303-70.344 48.767-100.401 78.818-29.628 29.822-55.497 63.439-76.797 100.042-21.058 37.133-37.812 77.378-49.445 119.743-11.182 44.048-17.147 90.359-17.243 138.048 0.129 36.465 3.92 71.908 11.024 106.137 13.793 65.574 40.675 126.541 77.779 179.862 36.305 53 82.294 98.687 135.437 134.589 26.216 17.101 54.527 32.635 84.021 46.019 31.555 13.967 63.696 24.18 97.157 30.704 33.868 6.93 69.556 10.698 106.101 10.83 0.447 0.001 0.855 0.002 1.263 0.002 40.997 0 80.864-4.839 119.060-13.976 37.874-9.109 74.051-22.277 108.144-39.038 33.251-17.148 64.432-37.013 93.512-59.467 28.424-22.397 54.535-48.347 77.38-77.015 22.577-28.569 42.595-59.639 59.486-92.575 17.4-33.805 30.708-69.356 39.591-106.624 9.161-37.896 14.046-77.722 14.046-118.689 0-0.223 0-0.446 0-0.668 0.022-1.021 0.034-2.265 0.034-3.512 0-6.029-0.288-11.991-0.85-17.872-0.701-5.888-0.701-11.071-1.459-16.254s-1.517-11.82-2.971-22.187-2.212-18.457-2.971-26.611h-129.327c1.517 7.396 2.212 15.486 4.488 26.611s2.971 17.699 3.729 22.187c0.933 4.867 1.484 10.48 1.517 16.216 0.505 5.161 0.793 11.123 0.793 17.152 0 1.247-0.012 2.491-0.037 3.732 0.007 0.487 0.010 1.284 0.010 2.080 0 30.108-3.527 59.393-10.191 87.463-6.658 27.914-16.645 54.677-29.501 79.725-12.67 24.995-27.762 48.249-45.038 69.668-16.99 21.453-36.528 40.871-58.131 57.772-21.529 17.127-44.931 32.121-69.817 44.593-25.554 12.86-52.586 22.747-80.888 29.327-28.764 6.94-59.003 10.711-90.1 10.847-31.257-0.090-61.499-3.863-90.462-10.908-28.119-6.54-55.149-16.448-80.478-29.234-25.11-12.567-48.512-27.562-70.097-44.742-21.547-16.847-41.085-36.265-58.118-57.759-17.364-21.304-32.281-44.572-44.376-69.465-12.838-25.204-22.806-52.036-29.455-80.151-6.978-28.524-10.772-58.518-10.913-89.374-0.004-0.686-0.006-1.39-0.006-2.095 0-35.327 5.175-69.445 14.808-101.638 8.817-32 22.036-62.192 38.93-89.897 16.518-27.595 36.441-52.768 59.216-75.036 22.705-22.571 48.083-42.357 75.647-58.87 28.266-16.339 58.881-29.42 91.12-38.654 33.621-9.41 68.941-14.518 105.419-14.741 27.503 0.011 54.241 2.703 80.105 7.826 22.041 4.042 43.961 10.881 64.629 20.033 22.772 10.325 43.511 21.658 63.277 34.373l-68.883 88.903c-2.085 2.376-3.449 5.431-3.726 8.794-0.004 5.933 4.484 8.146 12.638 8.146h291.524c0.141 0.005 0.306 0.007 0.472 0.007 4.184 0 7.972-1.693 10.716-4.432 2.735-2.62 4.447-6.289 4.488-10.359 0.033-0.326 0.052-0.697 0.052-1.071 0-1.486-0.298-2.901-0.837-4.191l-94.472-272.363c-1.517-6.637-4.488-9.608-8.913-9.608-2.971-1.391-6.7 0.822-9.671 5.246zM512.379 205.827c-8.281 0.146-16.198 1.476-23.663 3.827-7.38 2.555-14.251 5.803-20.675 9.713-5.472 4.159-11.414 8.584-16.597 13.008-4.984 4.798-9.402 10.12-13.186 15.896l-117.722 0.349c-0.004 0-0.009 0-0.013 0-5.888 0-11.179 2.556-14.824 6.618-4.145 3.892-6.717 9.383-6.717 15.474 0 0.011 0 0.022 0 0.033v40.389c0 0.009 0 0.020 0 0.031 0 6.091 2.572 11.582 6.689 15.445 3.673 4.092 8.964 6.648 14.852 6.648 0.005 0 0.009 0 0.014 0h117.443c8.653 12.229 19.287 22.42 31.536 30.323 12.243 7.919 26.597 12.588 42.018 12.911 8.993-0.445 17.368-2.030 25.292-4.616l137.685 137.358c3.874 3.665 9.117 5.918 14.886 5.918s11.012-2.253 14.896-5.927l29.762-29.509c3.521-3.924 5.74-9.081 5.941-14.751 0.003-0.141 0.004-0.259 0.004-0.378 0-5.637-2.27-10.743-5.946-14.455l-139.060-139.566c1.366-6.196 2.169-13.327 2.212-20.638 0.004-0.329 0.006-0.681 0.006-1.033 0-15.154-4.16-29.336-11.399-41.468-7.166-12.799-17.796-23.368-30.617-30.46-12.164-7.088-26.3-11.153-41.384-11.153-0.504 0-1.007 0.005-1.509 0.014z" />
<glyph unicode="&#xe915;" glyph-name="room" data-tags="room" horiz-adv-x="861" d="M329.703 457.971c0-23.215-18.169-42.035-40.581-42.035s-40.581 18.82-40.581 42.035c0 23.215 18.169 42.035 40.581 42.035s40.581-18.82 40.581-42.035zM749.163 800h-637.282c-61.756 0-111.881-42.351-111.881-94.815v-834.37c0-52.275 50.125-94.815 111.881-94.815h637.598c61.756 0 111.881 42.351 111.881 94.815v834.37c-0.316 52.464-50.441 94.815-112.198 94.815zM369.335 324.346c-6.345-4.109-10.484-11.153-10.484-19.163 0-0.552 0.020-1.1 0.058-1.643-0.004-89.938-0.004-179.949-0.004-269.897 0.048-0.581 0.075-1.258 0.075-1.941 0-4.636-1.248-8.981-3.426-12.717-15.169-16.251-31.54-31.485-47.090-47.54-6.89-6.827-13.717-6.321-20.606 0.948-8.976 9.292-18.204 17.952-27.18 26.927-11.062 11.125-21.807 22.882-35.524 36.788 13.148 11.757 24.778 22.566 38.495 34.955-12.642 11.757-24.462 22.566-39.064 35.903 13.717 12.073 25.663 22.566 40.897 36.156l-37.547 31.099c12.642 13.906 23.577 25.284 36.093 38.937-4.804 3.729-8.344 7.143-12.263 9.924-28.318 20.67-39.696 48.040-33.375 83.88 1.517 8.344-2.655 12.958-9.229 17.636-30.528 21.377-51.956 53.955-58.353 91.649-0.646 2.824-1.47 4.573-2.554 6.128l0.036 43.561 2.655 9.292c16.751 77.559 90.074 127.115 165.104 111.692 57.248-11.372 101.472-56.234 111.752-112.919 10.812-62.109-9.226-112.551-58.466-149.655zM770.655-192.395h-196.899v954.469h196.899z" />
</font>
</defs>
</svg>
